/* XPM */
static char * anim_prev_xpm[] = {
"24 24 37 1",
" 	c None",
".	c #000000",
"+	c #D9D9D9",
"@	c #FFFFFF",
"#	c #696867",
"$	c #5B5A59",
"%	c #9C9C9A",
"&	c #636261",
"*	c #908F8D",
"=	c #C5C4C3",
"-	c #6F6E6C",
";	c #959491",
">	c #C0BFBD",
",	c #D3D3D1",
"'	c #636260",
")	c #8D8C8B",
"!	c #B4B3B1",
"~	c #757574",
"{	c #868481",
"]	c #BAB9B6",
"^	c #B9B7B4",
"/	c #C5C4C2",
"(	c #D4D3D1",
"_	c #A2A09F",
":	c #A6A4A2",
"<	c #BDBCB9",
"[	c #C6C5C3",
"}	c #D4D3D2",
"|	c #A3A2A0",
"1	c #B7B6B3",
"2	c #D0CFCD",
"3	c #D4D4D3",
"4	c #A8A7A5",
"5	c #D5D5D3",
"6	c #DFDFDD",
"7	c #C4C4C2",
"8	c #DFDFDE",
"                        ",
"                        ",
"                        ",
"                        ",
"         .+       .+    ",
"        ..@      ..@    ",
"       .#.@     .#.@    ",
"      .$%.@    .$%.@    ",
"     .&*=.@   .&*=.@    ",
"    .-;>,.@  .-;>,.@    ",
"   .')!>,.@ .')!>,.@    ",
"  .~{]^/(.@.~{]^/(.@    ",
"   ._:<[}.@ ._:<[}.@    ",
"    .|123.@  .|123.@    ",
"     .456.@   .456.@    ",
"     @.78.@   @.78.@    ",
"      @.(.@    @.(.@    ",
"        ..@      ..@    ",
"        @.@      @.@    ",
"                        ",
"                        ",
"                        ",
"                        ",
"                        "};
